# xmcd CD database file
#
# Track frame offsets:
#	150
#	20397
#	40417
#	66002
#
# Disc length: 1221 seconds
#
# Revision: 2
# Processed by: cddbd v1.4PL0 Copyright (c) Steve Scherf et al.
# Submitted via: CDex 1.40Release
#
DISCID=2c04c304
DTITLE=Luther Vandross - I Can Make it Better
DYEAR=1996
DGENRE=Pop
TTITLE0=I can make it Better (single edit)
TTITLE1=I can make it Better  - Soulshock and Karlin Remix Edit
TTITLE2=I can make it Better -  Eric Claudieux Remix
TTITLE3=I can make it Better  - Charles Roone Remix
EXTD=All tracks special versions  adapted from the Epic/LV Records realease \n"Your Secret Love"  Single\nSony 664063 2 YEAR: 1996 ID3G: 13
EXTT0=
EXTT1=
EXTT2=
EXTT3=
PLAYORDER=
